<svg xmlns="http://www.w3.org/2000/svg" id="Layer_1" data-name="Layer 1" viewBox="0 0 1758.2 291.24"><defs><style>      .cls-1 {        fill: none;        stroke: #000;        stroke-miterlimit: 10;        stroke-width: 16px;      }      .cls-2 {        fill: #000;      }      .cls-2, .cls-3, .cls-4 {        stroke-width: 0px;      }      .cls-3 {        fill: #9058e0;      }      .cls-4 {        fill: #fff;      }    </style></defs><g><g><path class="cls-2" d="M1456.52,189.13l40-106.53h12.75l40,106.53h-18.83l-27.55-79.35-27.55,79.35h-18.83ZM1475.35,168.91v-16.78h56.05v16.78h-56.05Z"></path><path class="cls-2" d="M1573.57,82.6v106.53h-17.88v-106.53h17.88Z"></path></g><rect class="cls-1" x="1426.29" y="47.12" width="188.87" height="188.87" rx="56.17" ry="56.17"></rect></g><g><path class="cls-3" d="M243.56,63.24L161.6,15.92c-12.08-6.97-26.96-6.97-39.03,0L40.61,63.24c-12.08,6.97-19.52,19.86-19.52,33.8v94.64c0,13.95,7.44,26.83,19.52,33.8l81.96,47.32c12.08,6.97,26.96,6.97,39.03,0l81.96-47.32c12.08-6.97,19.52-19.86,19.52-33.8v-94.64c0-13.95-7.44-26.83-19.52-33.8Z"></path><path class="cls-4" d="M42.16,154.2c89.61,116.26,174.53,32.79,201.55-.04,5.53-6.72,5.77-16.67-.09-23.11-95.01-104.38-172.56-30.53-200.47.08-5.87,6.44-6.3,16.16-.98,23.06ZM142.74,202.25c-32.33,0-58.54-25.51-58.54-56.98s26.21-56.98,58.54-56.98,58.54,25.51,58.54,56.98-26.21,56.98-58.54,56.98Z"></path><g><path class="cls-4" d="M123.11,108.15h33.34v10.42h-43.35v-.41c0-5.52,4.48-10.01,10.01-10.01Z"></path><path class="cls-4" d="M159.26,108.15h3.42c5.52,0,10.01,4.48,10.01,10.01v.41h-13.43v-10.42h0Z"></path><rect class="cls-4" x="113.1" y="124.22" width="43.35" height="10.42"></rect><rect class="cls-4" x="159.26" y="124.22" width="13.43" height="10.42"></rect><rect class="cls-4" x="113.19" y="140.28" width="43.35" height="10.42"></rect><rect class="cls-4" x="159.35" y="140.28" width="13.43" height="10.42"></rect><rect class="cls-4" x="113.48" y="156.35" width="43.35" height="10.42"></rect><rect class="cls-4" x="159.64" y="156.35" width="13.43" height="10.42"></rect><path class="cls-4" d="M113.48,172.42h43.35v10.42h-33.34c-5.52,0-10.01-4.48-10.01-10.01v-.41h0Z"></path><path class="cls-4" d="M159.64,172.42h13.43v.41c0,5.52-4.48,10.01-10.01,10.01h-3.42v-10.42h0Z"></path></g></g><g><g><path class="cls-2" d="M384.77,208.19c-18.88,0-33.54-5.28-43.97-15.85-10.44-10.56-15.65-25.46-15.65-44.68v-18.32c0-19.05,5.2-33.79,15.59-44.23,10.39-10.43,25.07-15.65,44.04-15.65,10.82,0,20.59,1.86,29.29,5.59,8.7,3.72,15.65,9.05,20.85,15.98l-21.04,19.74c-3.46-3.72-7.58-6.58-12.34-8.57-4.76-1.99-9.79-2.99-15.07-2.99-9.61,0-17.06,2.64-22.34,7.92s-7.92,12.69-7.92,22.21v18.32c0,9.79,2.64,17.36,7.92,22.73,5.28,5.37,12.73,8.05,22.34,8.05,5.28,0,10.3-1.08,15.07-3.25,4.76-2.16,8.88-5.24,12.34-9.22l21.04,21.04c-5.2,6.75-12.17,11.97-20.91,15.65-8.75,3.68-18.49,5.52-29.23,5.52Z"></path><path class="cls-2" d="M479.28,17.37v149.25c0,3.21.82,5.72,2.47,7.53,1.64,1.82,3.98,2.73,7.01,2.73h9.22v29.75h-16.89c-10.39,0-18.47-3.12-24.23-9.35-5.76-6.24-8.64-15.02-8.64-26.37V17.37h31.05Z"></path><path class="cls-2" d="M550.55,208.19c-15.42,0-27-3.42-34.75-10.26-7.75-6.84-11.63-17.32-11.63-31.44s3.9-23.45,11.69-30.07c7.79-6.62,19.48-9.94,35.07-9.94h36.11l1.82,24.16h-37.8c-6.15,0-10.76,1.3-13.83,3.9-3.08,2.6-4.61,6.58-4.61,11.95,0,5.63,1.99,9.81,5.98,12.54,3.98,2.73,10,4.09,18.06,4.09,9.78,0,17.1-1.08,21.95-3.25,4.85-2.16,7.27-5.54,7.27-10.13l2.73,19.22c-1.47,4.42-4.09,8.03-7.86,10.85-3.77,2.81-8.25,4.92-13.44,6.3s-10.78,2.08-16.76,2.08ZM585.88,206.24v-85.47c0-7.53-2.23-13.38-6.69-17.54-4.46-4.16-10.76-6.23-18.9-6.23-5.2,0-10.31.8-15.33,2.4-5.02,1.6-9.53,3.92-13.51,6.95l-20.65-17.41c5.28-6.15,12.21-10.93,20.78-14.35,8.57-3.42,18.1-5.13,28.58-5.13,17.32,0,30.72,4.37,40.2,13.12,9.48,8.75,14.22,21.09,14.22,37.02v86.64h-28.71Z"></path><path class="cls-2" d="M638.04,48.42v-31.05h30.92v31.05h-30.92ZM638.04,206.24V71.41h30.92v134.83h-30.92Z"></path><path class="cls-2" d="M692.42,206.24V71.41h31.05v134.83h-31.05ZM772.05,206.24v-79.76c0-8.66-2.14-15.37-6.43-20.13-4.29-4.76-10.37-7.14-18.25-7.14s-13.51,2.08-17.67,6.23c-4.16,4.16-6.23,9.96-6.23,17.41l-2.73-27.93c3.98-8.14,9.14-14.42,15.46-18.83,6.32-4.42,13.59-6.62,21.82-6.62,14.29,0,25.35,4.96,33.19,14.87,7.84,9.92,11.76,23.92,11.76,42.02v79.89h-30.92ZM851.54,206.24v-79.76c0-8.66-2.17-15.37-6.5-20.13-4.33-4.76-10.48-7.14-18.45-7.14-7.53,0-13.36,2.29-17.47,6.88-4.11,4.59-6.17,11.04-6.17,19.35l-5.98-28.58c4.33-8.83,9.94-15.61,16.82-20.33,6.88-4.72,14.48-7.08,22.8-7.08,14.63,0,25.96,4.96,33.97,14.87,8.01,9.92,12.02,23.92,12.02,42.02v79.89h-31.05Z"></path><path class="cls-2" d="M896.57,98.56v-27.15h63.39v27.15h-63.39ZM943.33,206.89c-11.52,0-19.87-3.07-25.07-9.22-5.2-6.15-7.79-14.98-7.79-26.5V32.18h31.05v134.7c0,3.21.65,5.72,1.95,7.53,1.3,1.82,3.2,2.73,5.72,2.73h10.78v29.75h-16.63Z"></path><path class="cls-2" d="M1020.31,208.19c-15.42,0-27-3.42-34.75-10.26-7.75-6.84-11.63-17.32-11.63-31.44s3.9-23.45,11.69-30.07c7.79-6.62,19.48-9.94,35.07-9.94h36.11l1.82,24.16h-37.8c-6.15,0-10.76,1.3-13.83,3.9-3.08,2.6-4.61,6.58-4.61,11.95,0,5.63,1.99,9.81,5.98,12.54,3.98,2.73,10,4.09,18.06,4.09,9.78,0,17.1-1.08,21.95-3.25,4.85-2.16,7.27-5.54,7.27-10.13l2.73,19.22c-1.47,4.42-4.09,8.03-7.86,10.85-3.77,2.81-8.25,4.92-13.44,6.3s-10.78,2.08-16.76,2.08ZM1055.64,206.24v-85.47c0-7.53-2.23-13.38-6.69-17.54-4.46-4.16-10.76-6.23-18.9-6.23-5.2,0-10.31.8-15.33,2.4-5.02,1.6-9.53,3.92-13.51,6.95l-20.65-17.41c5.28-6.15,12.21-10.93,20.78-14.35,8.57-3.42,18.1-5.13,28.58-5.13,17.32,0,30.72,4.37,40.2,13.12,9.48,8.75,14.22,21.09,14.22,37.02v86.64h-28.71Z"></path><path class="cls-2" d="M1139.76,17.37v149.25c0,3.21.82,5.72,2.47,7.53,1.64,1.82,3.98,2.73,7.01,2.73h9.22v29.75h-16.89c-10.39,0-18.47-3.12-24.23-9.35-5.76-6.24-8.64-15.02-8.64-26.37V17.37h31.05Z"></path><path class="cls-2" d="M1203.49,17.37v149.25c0,3.21.82,5.72,2.47,7.53,1.64,1.82,3.98,2.73,7.01,2.73h9.22v29.75h-16.89c-10.39,0-18.47-3.12-24.23-9.35-5.76-6.24-8.64-15.02-8.64-26.37V17.37h31.05Z"></path><path class="cls-2" d="M1276.96,217.28l-55.08-145.87h30.27l43.39,117.17-18.58,28.71ZM1313.59,71.41h30.27l-58.71,166.4c-3.29,9.26-7.95,15.7-13.96,19.29-6.02,3.59-14.31,5.39-24.88,5.39h-6.62v-30.01h6.62c4.33,0,7.86-.91,10.59-2.73,2.73-1.82,5-4.89,6.82-9.22l49.88-149.12Z"></path></g><g><path class="cls-2" d="M1354.62,73.35h-5.38v-1.94h13.1v1.94h-5.41v15.75h-2.31v-15.75Z"></path><path class="cls-2" d="M1379.23,81.33c-.13-2.47-.29-5.43-.27-7.64h-.08c-.6,2.07-1.34,4.28-2.23,6.72l-3.12,8.58h-1.73l-2.86-8.43c-.84-2.49-1.55-4.78-2.05-6.88h-.06c-.05,2.21-.18,5.17-.34,7.82l-.47,7.59h-2.18l1.24-17.69h2.92l3.02,8.56c.74,2.18,1.34,4.12,1.78,5.96h.08c.44-1.78,1.08-3.73,1.86-5.96l3.15-8.56h2.91l1.1,17.69h-2.23l-.44-7.77Z"></path></g></g></svg>