<svg xmlns="http://www.w3.org/2000/svg" id="Layer_1" data-name="Layer 1" viewBox="0 0 229 96"><defs><style>      .cls-1 {        fill: #4084af;      }      .cls-1, .cls-2 {        stroke-width: 0px;      }      .cls-2 {        fill: #231f20;      }    </style></defs><g><g><path class="cls-2" d="M26.08,63.18H4.97V7.3h21.12c17.97,0,26.53,10.67,26.53,27.94s-8.55,27.94-26.53,27.94ZM26.32,12.71h-14.6v45.05h14.6c13.03,0,19.54-7.69,19.54-22.53s-6.52-22.53-19.54-22.53Z"></path><path class="cls-2" d="M57.08,63.18V7.3h38.38v5.57h-31.63v19.15h29.12v5.34h-29.12v20.25h31.63v5.57h-38.38Z"></path><path class="cls-2" d="M99.94,63.18V7.3h6.75v55.89h-6.75Z"></path></g><g><path class="cls-1" d="M154.81,63.21l-5.57-14.13h-26.84l-5.57,14.13h-6.99l21.9-55.89h8.16l21.9,55.89h-6.99ZM135.82,13.76l-11.7,30.06h23.31l-11.62-30.06Z"></path><path class="cls-1" d="M164.54,63.21V7.32h6.51v55.89h-6.51Z"></path><path class="cls-1" d="M176.94,63.21V7.32h6.51v55.89h-6.51Z"></path><path class="cls-1" d="M189.89,73.89h3.14c4.71,0,7.61-2.59,9.89-8.48l-16.72-42.7h6.75l12.87,35.08,13.03-35.08h6.75l-16.56,41.91c-4.32,10.83-8.4,13.97-16.01,13.97h-3.14v-4.71Z"></path></g></g><g><path class="cls-2" d="M4.71,80.27c0-6.66,3.29-11.24,10.07-11.24,5.86,0,9.27,3.56,9.27,7.68h-1.44c-.43-3.59-3.04-6.33-7.83-6.33-5.53,0-8.44,3.59-8.44,9.89s2.92,9.89,8.44,9.89c4.73,0,7.4-2.61,7.83-6.51h1.44c0,4.21-3.28,7.86-9.27,7.86-6.79,0-10.07-4.57-10.07-11.24Z"></path><path class="cls-2" d="M51.06,91.2v-10.44h-13.91v10.44h-1.63v-21.86h1.63v10.01h13.91v-10.01h1.63v21.86h-1.63Z"></path><path class="cls-2" d="M81.43,91.2l-2.49-6.17h-11.18l-2.49,6.17h-1.72l8.81-21.86h1.96l8.81,21.86h-1.72ZM73.35,71.03l-5.13,12.68h10.22l-5.1-12.68Z"></path><path class="cls-2" d="M96.38,91.2v-20.51h-7.15v-1.35h15.93v1.35h-7.15v20.51h-1.63Z"></path><path class="cls-2" d="M126.49,91.2h-10.32v-21.86h9.7c4.21,0,6.48,2.36,6.48,5.62,0,2.42-1.26,4.27-3.62,5.03,2.76.65,4.24,2.76,4.24,5.37,0,3.25-2.27,5.83-6.48,5.83ZM125.79,70.63h-7.98v8.81h7.98c3.25,0,4.94-1.81,4.94-4.39s-1.69-4.42-4.94-4.42ZM126.4,80.67h-8.6v9.24h8.6c3.25,0,4.94-2.03,4.94-4.61s-1.69-4.64-4.94-4.64Z"></path><path class="cls-2" d="M143.68,80.27c0-6.66,3.29-11.24,10.07-11.24s10.1,4.57,10.1,11.24-3.29,11.24-10.1,11.24-10.07-4.57-10.07-11.24ZM162.23,80.27c0-6.29-2.92-9.89-8.47-9.89s-8.44,3.59-8.44,9.89,2.92,9.89,8.44,9.89,8.47-3.59,8.47-9.89Z"></path><path class="cls-2" d="M179.54,91.2v-20.51h-7.15v-1.35h15.93v1.35h-7.15v20.51h-1.63Z"></path></g><g><path class="cls-1" d="M184.22,7.8v-.53h3.81v.53h-1.61v4.75h-.58v-4.75h-1.62Z"></path><path class="cls-1" d="M188.6,12.55v-5.28h1.06l1.5,4.46,1.49-4.46h1.06v5.28h-.59v-4.65h-.11l-1.53,4.46h-.66l-1.54-4.46h-.11v4.65h-.59Z"></path></g></svg>