<?xml version="1.0" encoding="UTF-8"?>
<svg xmlns="http://www.w3.org/2000/svg" id="Ebene_1" viewBox="0 0 164.8 68.5">
  <defs>
    <style>.cls-1{fill:#009fe3;stroke-width:0px;}</style>
  </defs>
  <path class="cls-1" d="m18.8,59.53c-1.22-1.48-1.84-3.96-1.84-7.43v-24.6h.48c2.26,0,4.52-.19,6.78-.58,2.26-.39,4.2-.84,5.81-1.35v-5.3h-13.08v-11.58H5.33v11.58H0v7.24h5.33v24.6c0,6.24,1.32,10.53,3.97,12.88,2.65,2.35,6.33,3.52,11.05,3.52,1.87,0,3.97-.19,6.3-.58,2.33-.39,4.1-.84,5.33-1.35v-4.83h-8.72c-1.75,0-3.23-.74-4.46-2.22Z"></path>
  <path class="cls-1" d="m59.43,19.68c-2.84-.9-6.59-1.35-11.24-1.35-1.81,0-3.81.19-6.01.58-2.2.39-4.07.84-5.62,1.35v4.82h9.69c3.42,0,5.97.69,7.66,2.07,1.68,1.39,2.52,3.91,2.52,7.58v3.86c-3.23-.64-5.98-.97-8.24-.97-5.1,0-9.05,1.11-11.82,3.33-2.78,2.22-4.17,6.26-4.17,12.11s1.34,9.81,4.02,12.06c2.68,2.25,6.35,3.38,11,3.38,4.39,0,7.95-1.28,10.66-3.86h.49l1.45,2.89h8.24v-32.8c0-4.37-.73-7.75-2.18-10.13-1.45-2.38-3.6-4.02-6.44-4.92Zm-3.01,40.14c-.52.51-1.24.96-2.18,1.35-.94.38-1.99.58-3.15.58-2.01,0-3.72-.67-5.14-2.03-1.42-1.35-2.13-3.57-2.13-6.66s.71-5.31,2.13-6.66c1.42-1.35,3.13-2.03,5.14-2.03h5.33v15.44Z"></path>
  <rect class="cls-1" x="74.16" width="11.63" height="67.54"></rect>
  <path class="cls-1" d="m162.62,24.6c-1.45-2.38-3.6-4.02-6.44-4.92-2.84-.9-6.59-1.35-11.24-1.35-1.81,0-3.81.19-6.01.58-2.2.39-4.07.84-5.62,1.35v4.82h9.69c3.42,0,5.97.69,7.65,2.08,1.68,1.38,2.52,3.91,2.52,7.57v3.86c-3.23-.64-5.98-.96-8.24-.96-5.1,0-9.05,1.11-11.82,3.33-2.78,2.22-4.17,6.25-4.17,12.11,0,1.85.15,3.5.42,4.98,0,.03.01.08.02.11.08.41.17.79.27,1.17.03.12.06.25.09.37.02.05.03.12.04.17,0,0,0,0,.01,0,0,0,0,0,0,0-10.27,2.91-18.87,1.67-20.61,1.02-1.53-.57-2.79-1.43-3.76-2.57-1.94-2.28-2.91-6.13-2.91-11.53h25.19v-3.38c0-8.88-1.55-15.27-4.65-19.2-3.1-3.92-7.69-5.89-13.76-5.89s-10.66,1.96-13.76,5.89c-3.1,3.93-4.65,10.32-4.65,19.2,0,6.11.77,11,2.32,14.66,1.55,3.67,3.91,6.32,7.07,7.96,3.16,1.64,7.3,2.46,12.4,2.46,2.26,0,5.59-.43,7.82-.96,18.81-4.48,29.24-19.38,29.24-19.38l-3.61,3.38c-3.63,2.87-7.38,4.96-11.03,6.48-.18-.58-.29-1.25-.28-2.04,0,0,0-.01,0-.02-.02-.96.16-2.02.51-3.16.57-1.86,1.42-3.33,2.56-4.38,1.14-1.05,2.34-1.79,3.63-2.23,1.28-.43,2.79-.82,4.52-1.04,7.43-.93,7.78-2.95,7.78-2.95,2.55,11.92-4.35,20.11-12.74,19.45-.11,0-1.35-.12-1.79-.21-.15-.04-.35-.08-.57-.15-.86.92-1.75,1.75-2.6,2.49-1.17,1.02-.85,2.95.6,3.5.87.33,1.81.6,2.8.79.04,0,.07.02.11.03.28.05.57.1.86.14.11.02.22.03.33.04.4.05.82.09,1.24.12.14.01.27.02.4.03.49.03.98.05,1.49.05h0c.43,0,.85-.02,1.26-.05.36-.02.71-.06,1.06-.1,3.34-.39,6.12-1.61,8.34-3.71h.48l1.45,2.89h8.24v-32.8c0-4.37-.73-7.75-2.18-10.13Zm-58.35,3.33c1.16-2.22,2.84-3.33,5.04-3.33s3.88,1.11,5.04,3.33c1.16,2.22,1.74,6.26,1.74,12.11h-13.57c0-5.85.58-9.89,1.74-12.11Z"></path>
</svg>
