<svg xmlns="http://www.w3.org/2000/svg" id="Layer_1" data-name="Layer 1" viewBox="0 0 427.25 122.27"><defs><style>      .cls-1 {        fill: #2d4151;      }      .cls-1, .cls-2, .cls-3, .cls-4, .cls-5 {        stroke-width: 0px;      }      .cls-2 {        fill: #010101;      }      .cls-3 {        fill: #354255;      }      .cls-4 {        fill: #231f20;      }      .cls-5 {        fill: #344155;      }    </style></defs><g><g><path class="cls-4" d="m30.57,70.48V18.04H12.28v-3.45h40.74v3.45h-18.29v52.43h-4.16Z"></path><path class="cls-4" d="m49.64,50.23c0-12.48,6.04-21.04,18.13-21.04s18.21,8.79,18.21,19.86c0,.31,0,.94-.08,1.49h-32.26c.24,12.79,6.2,17.66,14.6,17.66,7.46,0,11.85-3.92,13.42-9.73h3.45c-1.88,8.01-7.22,12.79-16.88,12.79-12.01,0-18.6-7.85-18.6-21.04Zm4-2.67h28.33c-.86-10.44-6.28-15.31-14.21-15.31s-13.27,4.87-14.13,15.31Z"></path><path class="cls-4" d="m89.82,59.02c0-5.89,3.85-10.28,13.5-11.07l6.91-.63c6.52-.55,8.4-1.81,8.4-5.34,0-5.97-3.38-9.65-11.3-9.65-7.22,0-11.07,2.98-11.54,9.65h-3.77c0-7.85,4.71-12.79,15.31-12.79s15.31,4.95,15.31,12.79v18.13c0,5.49.47,9.03,1.26,10.36h-3.45c-1.26-1.88-1.73-3.53-1.73-8.56-2.12,6.2-7.38,9.34-14.68,9.34-9.03,0-14.21-4.71-14.21-12.24Zm28.81-6.75v-4.87c-1.18,1.57-4.08,2.51-8.4,2.83l-6.12.55c-7.22.63-10.28,3.77-10.28,8.08,0,5.26,3.3,9.34,11.15,9.34,9.11,0,13.66-7.22,13.66-15.93Z"></path><path class="cls-4" d="m176.24,70.48v-26.37c0-7.69-2.12-11.54-8.56-11.54s-10.91,5.97-10.91,15.23v22.68h-4v-26.37c0-7.69-2.2-11.54-8.4-11.54s-10.83,5.97-10.83,15.23v22.68h-3.92V29.97h3.92v8.08c1.81-5.49,6.2-8.87,11.85-8.87,6.36,0,9.81,3.14,10.99,9.5,2.04-6.44,6.59-9.5,12.25-9.5,8.01,0,11.54,4.71,11.54,14.52v26.77h-3.92Z"></path></g><g><path class="cls-5" d="m215.11,70.48h-27.24V14.59h25.67c11.15,0,17.27,5.97,17.27,14.6,0,6.2-3.14,10.83-9.26,12.64,7.14,1.57,10.83,6.83,10.83,13.5,0,8.63-6.12,15.15-17.27,15.15Zm-2.28-50.71h-18.21v19.7h18.21c7.38,0,11.22-3.85,11.22-9.81s-3.85-9.89-11.22-9.89Zm1.57,24.73h-19.78v20.8h19.78c7.38,0,11.22-4.4,11.22-10.36s-3.85-10.44-11.22-10.44Z"></path><path class="cls-5" d="m237.17,56.74v-26.77h6.51v25.75c0,6.75,2.43,10.28,8.95,10.28s11.15-5.26,11.15-13.42v-22.61h6.51v40.5h-6.2v-7.46c-2.28,5.02-6.44,8.24-13.34,8.24-9.26,0-13.58-4.71-13.58-14.52Z"></path><path class="cls-5" d="m275.86,18.28c0-2.04,1.41-3.61,4-3.61s4.08,1.57,4.08,3.61-1.49,3.61-4.08,3.61-4-1.57-4-3.61Zm.79,52.2V29.97h6.51v40.5h-6.51Z"></path><path class="cls-5" d="m289.51,70.48V14.59h6.51v55.89h-6.51Z"></path><path class="cls-5" d="m300.82,50.23c0-13.27,6.67-21.04,17.58-21.04,6.91,0,11.7,2.83,13.97,8.48V14.59h6.51v55.89h-6.2v-8.08c-2.28,5.73-7.06,8.87-14.29,8.87-10.91,0-17.58-7.77-17.58-21.04Zm31.55,0c0-11.07-5.1-16.01-12.56-16.01s-12.48,4.95-12.48,16.01,5.1,16.01,12.48,16.01,12.56-4.94,12.56-16.01Z"></path><path class="cls-5" d="m343.67,50.23c0-12.48,6.44-21.04,18.92-21.04s18.99,8.79,18.99,20.09c0,.63,0,1.33-.16,1.96h-31.24c.16,10.99,5.34,15.46,12.87,15.46,6.51,0,10.44-3.45,11.85-8.56h5.81c-1.88,8.08-7.46,13.11-17.66,13.11-12.48,0-19.39-8.01-19.39-21.04Zm6.51-3.38h24.88c-.86-8.79-5.49-13.11-12.48-13.11s-11.54,4.32-12.4,13.11Z"></path><path class="cls-5" d="m386.36,70.48V29.97h6.2v9.58c2.2-7.06,5.89-9.97,11.93-9.97,1.1,0,2.51.16,3.69.39v5.65l-3.92-.16c-6.91,0-11.38,5.49-11.38,15.46v19.54h-6.51Z"></path></g><g><path class="cls-1" d="m408.64,30.31v-.26h1.88v.26h-.79v2.35h-.29v-2.35h-.8Z"></path><path class="cls-1" d="m410.8,32.65v-2.6h.52l.74,2.2.74-2.2h.52v2.6h-.29v-2.3h-.05l-.76,2.2h-.32l-.76-2.2h-.05v2.3h-.29Z"></path></g></g><g><path class="cls-4" d="m270.95,93.86v1.24h-.95v-8.54h1v3.53c.35-.86,1.08-1.3,2.13-1.3,1.67,0,2.69,1.19,2.69,3.21s-1.02,3.21-2.69,3.21c-1.12,0-1.83-.48-2.18-1.36Zm3.87-1.86c0-1.69-.78-2.45-1.92-2.45s-1.91.76-1.91,2.45.78,2.45,1.91,2.45,1.92-.76,1.92-2.45Z"></path><path class="cls-4" d="m276.58,96.73h.48c.72,0,1.16-.4,1.51-1.29l-2.55-6.52h1.03l1.97,5.36,1.99-5.36h1.03l-2.53,6.4c-.66,1.66-1.28,2.13-2.45,2.13h-.48v-.72Z"></path></g><g><path class="cls-3" d="m296.71,85.66c-.7.79-1.1,2.28-1.23,4.44-.08,1.43-.2,5.56-.18,6.04-.02.34-.26.67-.57.76h0l-.14.04c-2.01-.02-4.75-.36-5.52-3.08-.87-3.06,1.5-7.53,5.87-8.77.13-.04.44-.08.75-.11.45-.05.88-.24,1.23-.54l1.23-1.07c.39-.34.32-.98-.14-1.22-.79-.41-1.88-.26-2.79,0-4.5,1.28-8.32,7.09-6.55,13.31.21.72.88,1.91,1.31,2.38,1.18,1.41,2.77,2.3,4.75,2.59.32.09.52.37.52.78,0,.15,0,.52-.09,2.03-.09,1.92-.3,6-.19,6.37.17.21,1.74.36,2.08.26.13-.07.44-.42.48-.54,0-.15-.13-2.42-.26-4.43-.17-2.81-.26-4.16-.26-4.46-.04-.28.19-.65.44-.8h.03c1.7-.68,3.35-1.97,4.38-3.41,1.89-2.62,2.42-5.6,1.58-8.55-.37-1.28-1.94-3.43-4.04-4.16-.08-.03-.18-.04-.26-.03-.26.03-.79.15-1.21.67l-1.23,1.49Zm.81,10.7c-.17.05-.37,0-.55-.1-.14-.11-.26-.26-.28-.48-.11-.64-.06-3.36.04-4.81.17-2.65.65-5.43,2.61-5.98,1.48-.42,2.68.54,3.27,2.6,1,3.51-1.51,7.75-5.09,8.77Z"></path><g><path class="cls-2" d="m318.79,109.07v-11.82c0-3.49-1.23-5.22-4.69-5.22s-5.75,2.72-5.75,6.88v10.16h-1.8v-18.2h1.76v3.63c1.02-2.47,3.03-3.99,6.21-3.99,4.16,0,6.07,2.12,6.07,6.53v12.03h-1.8Z"></path><path class="cls-2" d="m325,105.4v-13.12h-3.28v-1.41h3.28v-5.5h1.8v5.5h4.69v1.41h-4.69v13.16c0,1.94.67,2.4,2.75,2.4l1.94-.11v1.34c-.63.07-1.62.14-2.19.14-3.07,0-4.3-.85-4.3-3.81Z"></path><path class="cls-2" d="m333.54,102.89v-12.03h1.8v11.82c0,3.49,1.23,5.22,4.69,5.22s5.75-2.72,5.75-6.88v-10.16h1.8v18.2h-1.76v-3.63c-1.02,2.47-3.03,3.99-6.25,3.99-4.16,0-6.03-2.12-6.03-6.53Z"></path><path class="cls-2" d="m350.36,85.5c0-.63.46-1.13,1.27-1.13s1.24.49,1.24,1.13-.46,1.17-1.24,1.17-1.27-.53-1.27-1.17Zm.35,23.57v-18.2h1.8v18.2h-1.8Z"></path><path class="cls-2" d="m357.27,105.4v-13.12h-3.28v-1.41h3.28v-5.5h1.8v5.5h4.69v1.41h-4.69v13.16c0,1.94.67,2.4,2.75,2.4l1.94-.11v1.34c-.63.07-1.62.14-2.19.14-3.07,0-4.3-.85-4.3-3.81Z"></path><path class="cls-2" d="m365.46,85.5c0-.63.46-1.13,1.27-1.13s1.24.49,1.24,1.13-.46,1.17-1.24,1.17-1.27-.53-1.27-1.17Zm.35,23.57v-18.2h1.8v18.2h-1.8Z"></path><path class="cls-2" d="m370.04,99.96c0-5.89,2.96-9.46,8.36-9.46s8.4,3.56,8.4,9.46-2.96,9.45-8.4,9.45-8.36-3.53-8.36-9.45Zm14.96,0c0-5.26-2.4-8.01-6.6-8.01s-6.56,2.75-6.56,8.01,2.4,8.01,6.56,8.01,6.6-2.75,6.6-8.01Z"></path><path class="cls-2" d="m401.47,109.07v-11.82c0-3.49-1.24-5.22-4.69-5.22s-5.75,2.72-5.75,6.88v10.16h-1.8v-18.2h1.76v3.63c1.02-2.47,3.03-3.99,6.21-3.99,4.16,0,6.07,2.12,6.07,6.53v12.03h-1.8Z"></path></g></g></svg>