<?xml version="1.0" encoding="UTF-8"?> <!-- Generator: Adobe Illustrator 27.5.0, SVG Export Plug-In . SVG Version: 6.00 Build 0) --> <svg xmlns="http://www.w3.org/2000/svg" xmlns:xlink="http://www.w3.org/1999/xlink" version="1.1" id="Layer_1" x="0px" y="0px" viewBox="0 0 1728 864" style="enable-background:new 0 0 1728 864;" xml:space="preserve"> <style type="text/css"> .st0{fill:#36363A;} .st1{fill:#7B61FF;} </style> <g> <g id="Group_2_5_" transform="translate(1237.81 380.721)"> <g id="Group_1_5_" transform="translate(32.854)"> <path id="Path_1_5_" class="st0" d="M-319.9,234.9h-41.8c-8.2,0-14.9-6.7-14.9-14.9v-7c-4.8,4.8-10.2,8.9-16.2,12.2 c-12.5,7.1-26.1,12-40.3,14.7c-6.6,1.3-13.4,1.9-20.1,2c-14.3,0.1-28.5-2.3-42-7c-13.2-4.5-25.4-11.8-35.6-21.4 c-10.9-10.5-19.3-23.2-24.6-37.3c-6.1-15.3-9.2-33.3-9.2-54.2V-37.8c0-8.2,6.7-14.9,14.9-14.9h41.8c8.2,0,14.9,6.7,14.9,14.9 v156.2c-0.2,9.3,1.4,18.5,4.7,27.1c2.8,7.2,7,13.8,12.4,19.4c5,5.1,11.2,9,17.9,11.4c6.8,2.5,13.9,3.8,21.1,3.7 c19.9,0.3,39.2-6.4,54.6-19c3.5-2.8,5.6-7.1,5.6-11.6V-37.8c0-8.2,6.7-14.9,14.9-14.9h41.8c8.2,0,14.9,6.7,14.9,14.9v257.7 C-305,228.2-311.7,234.9-319.9,234.9z"></path> <path id="Path_2_5_" class="st0" d="M-28.9,234.9h-43.3c-8.2,0-14.9-6.7-14.9-14.9l0,0c-9,7.4-19.3,13.1-30.3,16.7 c-11.3,3.5-23,5.3-34.8,5.2c-19.3,0.2-38.3-3.9-55.7-12.2c-16.6-7.9-31.5-19.1-43.8-32.8c-12.5-14.1-22.2-30.4-28.6-48 c-6.8-18.5-10.3-38-10.2-57.7c-0.2-20.6,3.8-41,11.7-60c7.4-17.8,17.9-34,31.1-48c12.6-13.4,27.6-24.3,44.3-32.1 c16-7.7,33.5-11.7,51.2-11.7c12.1,0,24.2,1.7,35.8,5c10.7,2.9,20.8,7.6,29.8,13.9V-151c0-8.2,6.7-14.9,14.9-14.9h42.8 c8.2,0,14.9,6.7,14.9,14.9v370.9C-13.9,228.2-20.6,234.9-28.9,234.9z M-86.1,150.6V27.8c0-5.4-3-10.5-7.7-13.1 c-1.2-0.7-2.5-1.3-3.8-2c-4.3-2.2-8.8-4-13.5-5.5c-4.6-1.5-9.2-2.6-14-3.5c-4.1-0.8-8.3-1.2-12.5-1.2c-11.2-0.2-22.3,2-32.7,6.2 c-9.7,4.1-18.5,10.2-25.7,17.9c-7.5,8.1-13.3,17.7-17,28.1c-4.1,11.7-6.1,24-6,36.3c-0.1,12.1,1.9,24.2,6,35.6 c3.7,10.2,9.3,19.7,16.5,27.9c7,7.8,15.6,14,25.2,18.2c10.2,4.4,21.1,6.6,32.2,6.5c17.1-0.1,33.7-6,47.1-16.6 C-88.2,159.7-86.1,155.3-86.1,150.6L-86.1,150.6z"></path> <path id="Path_3_5_" class="st0" d="M307.5,91.1c0.2,20.6-3.9,41-11.9,60c-7.6,17.9-18.8,34.2-32.8,47.8 c-14.2,13.6-30.8,24.4-49,31.8c-19,7.8-39.4,11.8-59.9,11.7c-20.5,0.1-40.8-3.8-59.7-11.7c-18.1-7.5-34.7-18.4-48.8-32.1 c-29-28.3-45.2-67.1-44.9-107.5c-0.1-20.3,4-40.4,12.2-58.9c7.9-18,19.1-34.4,33.1-48.3c28.8-28.4,67.6-44.2,108-44 c20.6-0.1,40.9,3.8,59.9,11.7c18.2,7.4,34.8,18.2,49,31.8c14.1,13.6,25.2,30,32.8,48C303.6,50.2,307.6,70.6,307.5,91.1z M235.8,91.1c0.1-11.8-2.1-23.4-6.4-34.3c-4.1-10.3-10.1-19.7-17.6-27.9c-7.4-7.9-16.2-14.2-26-18.7c-20.2-9-43.3-9-63.5,0 c-9.8,4.4-18.7,10.8-26,18.7C88.7,37,82.7,46.5,78.6,56.7c-8.6,22.1-8.6,46.6,0,68.7c4.1,10.3,10.1,19.7,17.6,27.9 c7.3,7.9,16.2,14.2,26,18.7c20.2,9,43.3,9,63.5,0c9.8-4.4,18.7-10.8,26-18.7c7.5-8.1,13.5-17.6,17.6-27.9 C233.8,114.5,235.9,102.8,235.8,91.1z"></path> </g> </g> <g> <path class="st1" d="M297.4,504.3V169H147.3v342.6c0,89.7,72.8,162.5,162.5,162.5h66.5C326.1,644.2,297.4,588.1,297.4,504.3z"></path> <path class="st1" d="M409.6,495.5c0,59,26.5,95.9,76.9,95.9c46.7,0,73.7-32.4,74.3-93.7V331.5c0-85.9-66.8-156.1-151.3-161.9 v325.9H409.6z"></path> </g> </g> </svg> 